<svg xmlns="http://www.w3.org/2000/svg" fill="none" viewBox="0 0 24 24" id="Prettier--Streamline-Svg-Logos" height="24" width="24">
  <desc>
    Prettier Streamline Icon: https://streamlinehq.com
  </desc>
  <path fill="#56b3b4" d="M18.81475 4.7262h-1.320125c-0.253475 0 -0.458975 0.2055 -0.458975 0.458975v0.201075c0 0.2535 0.2055 0.459 0.458975 0.459h1.320125c0.2535 0 0.458975 -0.2055 0.458975 -0.459v-0.201075c0 -0.253475 -0.205475 -0.458975 -0.458975 -0.458975Z" stroke-width="0.25"></path>
  <path fill="#ea5e5e" d="M6.505275 22.630975H0.7089825C0.4554925 22.630975 0.25 22.836475 0.25 23.089975v0.201075c0 0.253475 0.2054925 0.458975 0.4589825 0.458975H6.505275c0.2535 0 0.459 -0.2055 0.459 -0.458975v-0.201075c0 -0.2535 -0.2055 -0.459 -0.459 -0.459Z" stroke-width="0.25"></path>
  <path fill="#bf85bf" d="M17.69565 13.678475H14.13745c-0.2535 0 -0.458975 0.205475 -0.458975 0.458975v0.201075c0 0.2535 0.205475 0.458975 0.458975 0.458975h3.5582c0.2535 0 0.459 -0.205475 0.459 -0.458975v-0.201075c0 -0.2535 -0.2055 -0.458975 -0.459 -0.458975Z" stroke-width="0.25"></path>
  <path fill="#ea5e5e" d="M12.1006 13.678475h-4.67725c-0.2535 0 -0.459 0.205475 -0.459 0.458975v0.201075c0 0.2535 0.2055 0.458975 0.459 0.458975h4.67725c0.253475 0 0.458975 -0.205475 0.458975 -0.458975v-0.201075c0 -0.2535 -0.2055 -0.458975 -0.458975 -0.458975Z" stroke-width="0.25"></path>
  <path fill="#56b3b4" d="M5.38625 13.678475H0.7089825C0.4554925 13.678475 0.25 13.88395 0.25 14.13745v0.201075c0 0.2535 0.2054925 0.458975 0.4589825 0.458975H5.38625c0.253475 0 0.458975 -0.205475 0.458975 -0.458975v-0.201075c0 -0.2535 -0.2055 -0.458975 -0.458975 -0.458975Z" stroke-width="0.25"></path>
  <path fill="#bf85bf" d="M6.505275 18.154775H0.7089825C0.4554925 18.154775 0.25 18.360275 0.25 18.613775v0.201075c0 0.253475 0.2054925 0.458975 0.4589825 0.458975H6.505275c0.2535 0 0.459 -0.2055 0.459 -0.458975v-0.201075c0 -0.2535 -0.2055 -0.459 -0.459 -0.459Z" stroke-width="0.25"></path>
  <path fill="#bf85bf" d="M6.505275 9.2024H0.7089825C0.4554925 9.2024 0.25 9.407875 0.25 9.661375v0.201075c0 0.2535 0.2054925 0.458975 0.4589825 0.458975H6.505275c0.2535 0 0.459 -0.205475 0.459 -0.458975v-0.201075c0 -0.2535 -0.2055 -0.458975 -0.459 -0.458975Z" stroke-width="0.25"></path>
  <path fill="#f7ba3e" d="M17.6956 2.4880375H6.304075c-0.2535 0 -0.458975 0.2054875 -0.458975 0.4589875v0.201075c0 0.2535 0.205475 0.458975 0.458975 0.458975h11.391525c0.253475 0 0.458975 -0.205475 0.458975 -0.458975v-0.201075c0 -0.2535 -0.2055 -0.4589875 -0.458975 -0.4589875Z" stroke-width="0.25"></path>
  <path fill="#ea5e5e" d="M4.2672 2.4880375H0.7089825C0.4554925 2.4880375 0.25 2.693525 0.25 2.947025v0.201075c0 0.2535 0.2054925 0.458975 0.4589825 0.458975H4.2672c0.253475 0 0.458975 -0.205475 0.458975 -0.458975v-0.201075c0 -0.2535 -0.2055 -0.4589875 -0.458975 -0.4589875Z" stroke-width="0.25"></path>
  <path fill="#f7ba3e" d="M6.5053 20.392825h-1.320125c-0.253475 0 -0.458975 0.2055 -0.458975 0.458975v0.201075c0 0.2535 0.2055 0.459 0.458975 0.459h1.320125c0.2535 0 0.458975 -0.2055 0.458975 -0.459v-0.201075c0 -0.253475 -0.205475 -0.458975 -0.458975 -0.458975Z" stroke-width="0.25"></path>
  <path fill="#56b3b4" d="M6.5053 6.96435h-1.320125c-0.253475 0 -0.458975 0.2055 -0.458975 0.459v0.201075c0 0.253475 0.2055 0.458975 0.458975 0.458975h1.320125c0.2535 0 0.458975 -0.2055 0.458975 -0.458975v-0.201075c0 -0.2535 -0.205475 -0.459 -0.458975 -0.459Z" stroke-width="0.25"></path>
  <path fill="#56b3b4" d="M3.14815 20.392825H0.7089825C0.4554925 20.392825 0.25 20.598325 0.25 20.8518v0.201075c0 0.2535 0.2054925 0.459 0.4589825 0.459h2.4391675c0.2535 0 0.458975 -0.2055 0.458975 -0.459v-0.201075c0 -0.253475 -0.205475 -0.458975 -0.458975 -0.458975Z" stroke-width="0.25"></path>
  <path fill="#f7ba3e" d="M3.14815 6.96435H0.7089825C0.4554925 6.96435 0.25 7.16985 0.25 7.42335v0.201075c0 0.253475 0.2054925 0.458975 0.4589825 0.458975h2.4391675c0.2535 0 0.458975 -0.2055 0.458975 -0.458975v-0.201075c0 -0.2535 -0.205475 -0.459 -0.458975 -0.459Z" stroke-width="0.25"></path>
  <path fill="#d0d4d8" d="M16.576725 20.392825h-1.320125c-0.2535 0 -0.459 0.2055 -0.459 0.458975v0.201075c0 0.2535 0.2055 0.459 0.459 0.459h1.320125c0.253475 0 0.458975 -0.2055 0.458975 -0.459v-0.201075c0 -0.253475 -0.2055 -0.458975 -0.458975 -0.458975Z" opacity=".5" stroke-width="0.25"></path>
  <path fill="#d0d4d8" d="M13.2195 20.392825H8.542225c-0.253475 0 -0.458975 0.2055 -0.458975 0.458975v0.201075c0 0.2535 0.2055 0.459 0.458975 0.459H13.2195c0.253475 0 0.458975 -0.2055 0.458975 -0.459v-0.201075c0 -0.253475 -0.2055 -0.458975 -0.458975 -0.458975Z" opacity=".5" stroke-width="0.25"></path>
  <path fill="#d0d4d8" d="M23.291025 20.392825h-4.67725c-0.2535 0 -0.459 0.2055 -0.459 0.458975v0.201075c0 0.2535 0.2055 0.459 0.459 0.459h4.67725c0.2535 0 0.458975 -0.2055 0.458975 -0.459v-0.201075c0 -0.253475 -0.205475 -0.458975 -0.458975 -0.458975Z" opacity=".5" stroke-width="0.25"></path>
  <path fill="#56b3b4" d="M18.8148 11.440425H9.661375c-0.2535 0 -0.458975 0.2055 -0.458975 0.459v0.201075c0 0.253475 0.205475 0.458975 0.458975 0.458975h9.153425c0.2535 0 0.459 -0.2055 0.459 -0.458975v-0.201075c0 -0.2535 -0.2055 -0.459 -0.459 -0.459Z" stroke-width="0.25"></path>
  <path fill="#f7ba3e" d="M7.62425 11.440425H4.06605c-0.2535 0 -0.459 0.2055 -0.459 0.459v0.201075c0 0.253475 0.2055 0.458975 0.459 0.458975H7.62425c0.2535 0 0.458975 -0.2055 0.458975 -0.458975v-0.201075c0 -0.2535 -0.205475 -0.459 -0.458975 -0.459Z" stroke-width="0.25"></path>
  <path fill="#ea5e5e" d="M2.029105 11.440425H0.7089825C0.4554925 11.440425 0.25 11.645925 0.25 11.899425v0.201075c0 0.253475 0.2054925 0.458975 0.4589825 0.458975h1.3201225c0.25349 0 0.458985 -0.2055 0.458985 -0.458975v-0.201075c0 -0.2535 -0.205495 -0.459 -0.458985 -0.459Z" stroke-width="0.25"></path>
  <path fill="#bf85bf" d="M15.45765 4.7262h-4.67725c-0.2535 0 -0.459 0.2055 -0.459 0.458975v0.201075c0 0.2535 0.2055 0.459 0.459 0.459h4.67725c0.2535 0 0.458975 -0.2055 0.458975 -0.459v-0.201075c0 -0.253475 -0.205475 -0.458975 -0.458975 -0.458975Z" stroke-width="0.25"></path>
  <path fill="#56b3b4" d="M8.743375 4.7262H0.7089825C0.4554925 4.7262 0.25 4.9317 0.25 5.185175v0.201075c0 0.2535 0.2054925 0.459 0.4589825 0.459H8.743375c0.253475 0 0.458975 -0.2055 0.458975 -0.459v-0.201075c0 -0.253475 -0.2055 -0.458975 -0.458975 -0.458975Z" stroke-width="0.25"></path>
  <path fill="#f7ba3e" d="M14.338525 15.916625H4.06605c-0.2535 0 -0.459 0.2055 -0.459 0.458975v0.201075c0 0.2535 0.2055 0.459 0.459 0.459h10.272475c0.253475 0 0.458975 -0.2055 0.458975 -0.459v-0.201075c0 -0.253475 -0.2055 -0.458975 -0.458975 -0.458975Z" stroke-width="0.25"></path>
  <path fill="#bf85bf" d="M2.029105 15.916625H0.7089825C0.4554925 15.916625 0.25 16.122125 0.25 16.3756v0.201075c0 0.2535 0.2054925 0.459 0.4589825 0.459h1.3201225c0.25349 0 0.458985 -0.2055 0.458985 -0.459v-0.201075c0 -0.253475 -0.205495 -0.458975 -0.458985 -0.458975Z" stroke-width="0.25"></path>
  <path fill="#ea5e5e" d="M19.93375 6.96435H14.13745c-0.2535 0 -0.458975 0.2055 -0.458975 0.459v0.201075c0 0.253475 0.205475 0.458975 0.458975 0.458975H19.93375c0.2535 0 0.458975 -0.2055 0.458975 -0.458975v-0.201075c0 -0.2535 -0.205475 -0.459 -0.458975 -0.459Z" stroke-width="0.25"></path>
  <path fill="#f7ba3e" d="M19.93375 9.2024H14.13745c-0.2535 0 -0.458975 0.205475 -0.458975 0.458975v0.201075c0 0.2535 0.205475 0.458975 0.458975 0.458975H19.93375c0.2535 0 0.458975 -0.205475 0.458975 -0.458975v-0.201075c0 -0.2535 -0.205475 -0.458975 -0.458975 -0.458975Z" stroke-width="0.25"></path>
  <path fill="#56b3b4" d="M14.3386 0.25H0.7089825C0.4554925 0.25 0.25 0.4554925 0.25 0.7089825v0.20108c0 0.2534875 0.2054925 0.4589825 0.4589825 0.4589825H14.3386c0.253475 0 0.458975 -0.205495 0.458975 -0.4589825v-0.20108C14.797575 0.4554925 14.592075 0.25 14.3386 0.25Z" stroke-width="0.25"></path>
  <path fill="#d0d4d8" d="M23.29095 0.25H16.3756c-0.253475 0 -0.458975 0.2054925 -0.458975 0.4589825v0.20108c0 0.2534875 0.2055 0.4589825 0.458975 0.4589825h6.91535c0.2535 0 0.458975 -0.205495 0.458975 -0.4589825v-0.20108C23.749925 0.4554925 23.54445 0.25 23.29095 0.25Z" opacity=".5" stroke-width="0.25"></path>
  <path fill="#d0d4d8" d="M18.814775 15.916625h-2.439175c-0.253475 0 -0.458975 0.2055 -0.458975 0.458975v0.201075c0 0.2535 0.2055 0.459 0.458975 0.459h2.439175c0.2535 0 0.458975 -0.2055 0.458975 -0.459v-0.201075c0 -0.253475 -0.205475 -0.458975 -0.458975 -0.458975Z" opacity=".5" stroke-width="0.25"></path>
  <path fill="#d0d4d8" d="M23.290975 15.916625h-2.439175c-0.253475 0 -0.458975 0.2055 -0.458975 0.458975v0.201075c0 0.2535 0.2055 0.459 0.458975 0.459h2.439175c0.253475 0 0.458975 -0.2055 0.458975 -0.459v-0.201075c0 -0.253475 -0.2055 -0.458975 -0.458975 -0.458975Z" opacity=".5" stroke-width="0.25"></path>
  <path fill="#d0d4d8" d="M23.291 13.678475H19.732775c-0.253475 0 -0.458975 0.205475 -0.458975 0.458975v0.201075c0 0.2535 0.2055 0.458975 0.458975 0.458975H23.291c0.253475 0 0.458975 -0.205475 0.458975 -0.458975v-0.201075c0 -0.2535 -0.2055 -0.458975 -0.458975 -0.458975Z" opacity=".5" stroke-width="0.25"></path>
  <path fill="#d0d4d8" d="M23.291 2.4880375H19.732775c-0.253475 0 -0.458975 0.2054875 -0.458975 0.4589875v0.201075c0 0.2535 0.2055 0.458975 0.458975 0.458975H23.291c0.253475 0 0.458975 -0.205475 0.458975 -0.458975v-0.201075c0 -0.2535 -0.2055 -0.4589875 -0.458975 -0.4589875Z" opacity=".5" stroke-width="0.25"></path>
  <path fill="#d0d4d8" d="M23.290975 11.440425h-2.439175c-0.253475 0 -0.458975 0.2055 -0.458975 0.459v0.201075c0 0.253475 0.2055 0.458975 0.458975 0.458975h2.439175c0.253475 0 0.458975 -0.2055 0.458975 -0.458975v-0.201075c0 -0.2535 -0.2055 -0.459 -0.458975 -0.459Z" opacity=".5" stroke-width="0.25"></path>
  <path fill="#d0d4d8" d="M23.290975 4.7262h-2.439175c-0.253475 0 -0.458975 0.2055 -0.458975 0.458975v0.201075c0 0.2535 0.2055 0.459 0.458975 0.459h2.439175c0.253475 0 0.458975 -0.2055 0.458975 -0.459v-0.201075c0 -0.253475 -0.2055 -0.458975 -0.458975 -0.458975Z" opacity=".5" stroke-width="0.25"></path>
  <path fill="#d0d4d8" d="M23.291075 6.96435h-1.320125c-0.2535 0 -0.458975 0.2055 -0.458975 0.459v0.201075c0 0.253475 0.205475 0.458975 0.458975 0.458975h1.320125c0.253475 0 0.458975 -0.2055 0.458975 -0.458975v-0.201075c0 -0.2535 -0.2055 -0.459 -0.458975 -0.459Z" opacity=".5" stroke-width="0.25"></path>
  <path fill="#d0d4d8" d="M23.291075 9.2024h-1.320125c-0.2535 0 -0.458975 0.205475 -0.458975 0.458975v0.201075c0 0.2535 0.205475 0.458975 0.458975 0.458975h1.320125c0.253475 0 0.458975 -0.205475 0.458975 -0.458975v-0.201075c0 -0.2535 -0.2055 -0.458975 -0.458975 -0.458975Z" opacity=".5" stroke-width="0.25"></path>
  <path fill="#d0d4d8" d="M23.2909 18.154775H13.018425c-0.253475 0 -0.458975 0.2055 -0.458975 0.459v0.201075c0 0.253475 0.2055 0.458975 0.458975 0.458975h10.272475c0.2535 0 0.459 -0.2055 0.459 -0.458975v-0.201075c0 -0.2535 -0.2055 -0.459 -0.459 -0.459Z" opacity=".5" stroke-width="0.25"></path>
  <path fill="#d0d4d8" d="M10.9814 18.154775h-2.439175c-0.253475 0 -0.458975 0.2055 -0.458975 0.459v0.201075c0 0.253475 0.2055 0.458975 0.458975 0.458975h2.439175c0.2535 0 0.458975 -0.2055 0.458975 -0.458975v-0.201075c0 -0.2535 -0.205475 -0.459 -0.458975 -0.459Z" opacity=".5" stroke-width="0.25"></path>
  <path fill="#d0d4d8" d="M23.290925 22.630975H17.494625c-0.253475 0 -0.458975 0.2055 -0.458975 0.459v0.201075c0 0.253475 0.2055 0.458975 0.458975 0.458975h5.7963c0.2535 0 0.458975 -0.2055 0.458975 -0.458975v-0.201075c0 -0.2535 -0.205475 -0.459 -0.458975 -0.459Z" opacity=".5" stroke-width="0.25"></path>
  <path fill="#d0d4d8" d="M15.457575 22.630975H8.542225c-0.253475 0 -0.458975 0.2055 -0.458975 0.459v0.201075c0 0.253475 0.2055 0.458975 0.458975 0.458975h6.91535c0.2535 0 0.459 -0.2055 0.459 -0.458975v-0.201075c0 -0.2535 -0.2055 -0.459 -0.459 -0.459Z" opacity=".5" stroke-width="0.25"></path>
  <path fill="#d0d4d8" d="M12.10045 6.96435H8.542225c-0.253475 0 -0.458975 0.2055 -0.458975 0.459v0.201075c0 0.253475 0.2055 0.458975 0.458975 0.458975h3.558225c0.253475 0 0.458975 -0.2055 0.458975 -0.458975v-0.201075c0 -0.2535 -0.2055 -0.459 -0.458975 -0.459Z" opacity=".5" stroke-width="0.25"></path>
  <path fill="#d0d4d8" d="M12.10045 9.2024H8.542225c-0.253475 0 -0.458975 0.205475 -0.458975 0.458975v0.201075c0 0.2535 0.2055 0.458975 0.458975 0.458975h3.558225c0.253475 0 0.458975 -0.205475 0.458975 -0.458975v-0.201075c0 -0.2535 -0.2055 -0.458975 -0.458975 -0.458975Z" opacity=".5" stroke-width="0.25"></path>
</svg>